<svg width="142" height="60" viewBox="0 0 142 60" fill="none" xmlns="http://www.w3.org/2000/svg">
<path d="M72.5 38.08V36H84.26V38.08H79.6V50H77.2V38.08H72.5ZM85.5422 50V39.98H87.8022V42.16C88.0689 41.4 88.4355 40.82 88.9022 40.42C89.3822 40.0067 89.9355 39.8 90.5622 39.8C90.7489 39.8133 90.9155 39.8333 91.0622 39.86C91.2089 39.8867 91.3689 39.9333 91.5422 40V41.98C91.3689 41.9 91.1689 41.84 90.9422 41.8C90.7289 41.76 90.5155 41.74 90.3022 41.74C89.7689 41.74 89.2822 41.8867 88.8422 42.18C88.4022 42.4733 88.0555 42.88 87.8022 43.4V50H85.5422ZM96.2517 50.16C95.2117 50.16 94.3584 49.88 93.6917 49.32C93.0384 48.7467 92.7117 48.0133 92.7117 47.12C92.7117 46.2267 93.0517 45.5133 93.7317 44.98C94.4251 44.4467 95.3584 44.18 96.5317 44.18C96.9984 44.18 97.4517 44.2333 97.8917 44.34C98.3317 44.4333 98.7784 44.5867 99.2317 44.8V43.7C99.2317 43.0467 99.0384 42.5533 98.6517 42.22C98.2651 41.8733 97.6917 41.7 96.9317 41.7C96.5184 41.7 96.0717 41.7667 95.5917 41.9C95.1117 42.02 94.5851 42.2133 94.0117 42.48L93.2117 40.84C93.9584 40.4933 94.6717 40.24 95.3517 40.08C96.0317 39.9067 96.7051 39.82 97.3717 39.82C98.6651 39.82 99.6717 40.14 100.392 40.78C101.112 41.4067 101.472 42.3 101.472 43.46V50H99.2317V48.98C98.7784 49.3933 98.3117 49.6933 97.8317 49.88C97.3517 50.0667 96.8251 50.16 96.2517 50.16ZM94.8317 47.08C94.8317 47.5333 95.0184 47.9 95.3917 48.18C95.7651 48.4467 96.2584 48.58 96.8717 48.58C97.3251 48.58 97.7451 48.5133 98.1317 48.38C98.5317 48.2467 98.8984 48.04 99.2317 47.76V46.12C98.8717 45.9467 98.5051 45.8267 98.1317 45.76C97.7584 45.68 97.3517 45.64 96.9117 45.64C96.2717 45.64 95.7651 45.7733 95.3917 46.04C95.0184 46.2933 94.8317 46.64 94.8317 47.08ZM106.809 50L102.709 39.98H105.169L107.949 47.3L110.729 39.98H113.109L108.989 50H106.809ZM123.206 48.72C122.593 49.2267 121.966 49.6 121.326 49.84C120.699 50.08 119.999 50.2 119.226 50.2C118.519 50.2 117.853 50.0667 117.226 49.8C116.599 49.5333 116.059 49.1667 115.606 48.7C115.153 48.2333 114.793 47.68 114.526 47.04C114.259 46.4 114.126 45.72 114.126 45C114.126 44.2667 114.246 43.5867 114.486 42.96C114.739 42.32 115.079 41.7733 115.506 41.32C115.946 40.8533 116.466 40.4867 117.066 40.22C117.666 39.9533 118.313 39.82 119.006 39.82C119.686 39.82 120.313 39.9533 120.886 40.22C121.473 40.4733 121.973 40.8267 122.386 41.28C122.813 41.7333 123.146 42.28 123.386 42.92C123.626 43.5467 123.746 44.2333 123.746 44.98V45.54H116.346C116.453 46.3267 116.786 46.98 117.346 47.5C117.919 48.02 118.586 48.28 119.346 48.28C119.813 48.28 120.253 48.2 120.666 48.04C121.093 47.8667 121.446 47.6333 121.726 47.34L123.206 48.72ZM118.986 41.66C118.319 41.66 117.753 41.8867 117.286 42.34C116.819 42.7933 116.519 43.4 116.386 44.16H121.606C121.473 43.4267 121.166 42.8267 120.686 42.36C120.219 41.8933 119.653 41.66 118.986 41.66ZM128.461 35.32V50H126.201V35.7L128.461 35.32ZM130.93 45C130.93 44.2667 131.057 43.5867 131.31 42.96C131.577 42.32 131.93 41.7733 132.37 41.32C132.823 40.8533 133.357 40.4867 133.97 40.22C134.597 39.9533 135.263 39.82 135.97 39.82C136.69 39.82 137.357 39.9533 137.97 40.22C138.583 40.4867 139.117 40.8533 139.57 41.32C140.023 41.7733 140.377 42.32 140.63 42.96C140.883 43.5867 141.01 44.2667 141.01 45C141.01 45.7333 140.877 46.42 140.61 47.06C140.357 47.7 140.003 48.2533 139.55 48.72C139.11 49.1733 138.577 49.5333 137.95 49.8C137.337 50.0667 136.677 50.2 135.97 50.2C135.263 50.2 134.597 50.0667 133.97 49.8C133.357 49.5333 132.823 49.1667 132.37 48.7C131.93 48.2333 131.577 47.6867 131.31 47.06C131.057 46.42 130.93 45.7333 130.93 45ZM135.97 48.24C136.783 48.24 137.45 47.9333 137.97 47.32C138.503 46.7067 138.77 45.94 138.77 45.02C138.77 44.0733 138.503 43.2933 137.97 42.68C137.437 42.0667 136.77 41.76 135.97 41.76C135.157 41.76 134.483 42.0667 133.95 42.68C133.43 43.2933 133.17 44.0733 133.17 45.02C133.17 45.9533 133.43 46.7267 133.95 47.34C134.483 47.94 135.157 48.24 135.97 48.24Z" fill="#1EC28B"/>
<path d="M30 0L60 55H0L30 0Z" fill="#1EC28B"/>
<path d="M30 25L49.0909 60H10.9091L30 25Z" fill="#01385F"/>
</svg>
