<svg width="37" height="37" viewBox="0 0 37 37" fill="none" xmlns="http://www.w3.org/2000/svg">
<g filter="url(#filter0_d_2_243)">
<circle cx="18.5107" cy="14.4681" r="14.4681" fill="white"/>
</g>
<path d="M18.7035 11.3921C17.9536 11.3921 17.2344 11.7042 16.7041 12.2598C16.1738 12.8153 15.8759 13.5689 15.8759 14.3545C15.8759 15.1402 16.1738 15.8937 16.7041 16.4493C17.2344 17.0049 17.9536 17.317 18.7035 17.317C19.4535 17.317 20.1727 17.0049 20.703 16.4493C21.2333 15.8937 21.5312 15.1402 21.5312 14.3545C21.5312 13.5689 21.2333 12.8153 20.703 12.2598C20.1727 11.7042 19.4535 11.3921 18.7035 11.3921ZM18.7035 16.2785C18.2163 16.2785 17.7491 16.0757 17.4046 15.7148C17.0601 15.3539 16.8665 14.8643 16.8665 14.3539C16.8665 13.8435 17.0601 13.354 17.4046 12.993C17.7491 12.6321 18.2163 12.4293 18.7035 12.4293C19.1907 12.4293 19.658 12.6321 20.0025 12.993C20.347 13.354 20.5405 13.8435 20.5405 14.3539C20.5405 14.8643 20.347 15.3539 20.0025 15.7148C19.658 16.0757 19.1907 16.2785 18.7035 16.2785Z" fill="#00395F"/>
<path d="M21.5311 12.5772C22.1558 12.5772 22.6622 12.0467 22.6622 11.3923C22.6622 10.7378 22.1558 10.2073 21.5311 10.2073C20.9064 10.2073 20.4 10.7378 20.4 11.3923C20.4 12.0467 20.9064 12.5772 21.5311 12.5772Z" fill="#00395F"/>
<path d="M24.5947 10.0817C24.4347 9.6496 24.1903 9.25724 23.877 8.92969C23.5638 8.60214 23.1886 8.34662 22.7755 8.17948C22.2921 7.98966 21.7814 7.88703 21.2652 7.87594C20.5999 7.84559 20.3891 7.83691 18.7019 7.83691C17.0148 7.83691 16.7985 7.83691 16.1387 7.87594C15.6228 7.88646 15.1125 7.98912 14.6298 8.17948C14.2165 8.34643 13.8413 8.60188 13.528 8.92946C13.2147 9.25703 12.9704 9.64949 12.8106 10.0817C12.6291 10.5873 12.5312 11.1215 12.5211 11.6615C12.4914 12.3567 12.4824 12.5772 12.4824 14.3427C12.4824 16.1076 12.4824 16.3324 12.5211 17.024C12.5315 17.5646 12.6289 18.0979 12.8106 18.6046C12.9708 19.0366 13.2154 19.4289 13.5288 19.7564C13.8421 20.0839 14.2173 20.3395 14.6304 20.5067C15.1123 20.7042 15.6228 20.8142 16.1401 20.832C16.8054 20.8623 17.0161 20.8717 18.7033 20.8717C20.3905 20.8717 20.6068 20.8717 21.2666 20.832C21.7828 20.821 22.2934 20.7186 22.7769 20.5291C23.1899 20.3616 23.565 20.1059 23.8782 19.7782C24.1914 19.4506 24.4359 19.0583 24.596 18.6263C24.7777 18.1204 24.8752 17.587 24.8855 17.0464C24.9152 16.3512 24.9242 16.1307 24.9242 14.3652C24.9242 12.5996 24.9242 12.3755 24.8855 11.6839C24.8775 11.1363 24.7791 10.5942 24.5947 10.0817ZM23.7531 16.9705C23.7487 17.387 23.676 17.7996 23.5383 18.1905C23.4345 18.4715 23.2757 18.7267 23.072 18.9397C22.8682 19.1526 22.6242 19.3186 22.3554 19.427C21.986 19.5704 21.5957 19.6465 21.2016 19.6518C20.5453 19.6836 20.3601 19.6915 18.6771 19.6915C16.9926 19.6915 16.8206 19.6915 16.1518 19.6518C15.7579 19.6467 15.3679 19.5707 14.9987 19.427C14.729 19.3193 14.484 19.1536 14.2794 18.9406C14.0748 18.7276 13.9152 18.472 13.811 18.1905C13.6752 17.8038 13.6026 17.3961 13.5962 16.9843C13.5664 16.2977 13.5595 16.104 13.5595 14.3435C13.5595 12.5822 13.5595 12.4023 13.5962 11.702C13.6006 11.2857 13.6733 10.8733 13.811 10.4828C14.0218 9.91254 14.4536 9.46373 14.9987 9.24548C15.368 9.10248 15.758 9.02647 16.1518 9.02071C16.8089 8.98964 16.9933 8.98096 18.6771 8.98096C20.3608 8.98096 20.5335 8.98096 21.2016 9.02071C21.5957 9.02567 21.9861 9.10171 22.3554 9.24548C22.6242 9.35408 22.8682 9.52025 23.0719 9.73333C23.2756 9.9464 23.4344 10.2017 23.5383 10.4828C23.6741 10.8694 23.7467 11.2771 23.7531 11.689C23.7828 12.3763 23.7904 12.5692 23.7904 14.3305C23.7904 16.091 23.7904 16.2803 23.7607 16.9712H23.7531V16.9705Z" fill="#00395F"/>
<defs>
<filter id="filter0_d_2_243" x="0.0426025" y="0" width="36.9362" height="36.9363" filterUnits="userSpaceOnUse" color-interpolation-filters="sRGB">
<feFlood flood-opacity="0" result="BackgroundImageFix"/>
<feColorMatrix in="SourceAlpha" type="matrix" values="0 0 0 0 0 0 0 0 0 0 0 0 0 0 0 0 0 0 127 0" result="hardAlpha"/>
<feOffset dy="4"/>
<feGaussianBlur stdDeviation="2"/>
<feColorMatrix type="matrix" values="0 0 0 0 0.7375 0 0 0 0 0.7375 0 0 0 0 0.7375 0 0 0 0.25 0"/>
<feBlend mode="normal" in2="BackgroundImageFix" result="effect1_dropShadow_2_243"/>
<feBlend mode="normal" in="SourceGraphic" in2="effect1_dropShadow_2_243" result="shape"/>
</filter>
</defs>
</svg>
