<svg width="48" height="48" viewBox="0 0 48 48" fill="none" xmlns="http://www.w3.org/2000/svg">
<path d="M23.8262 25.8637C23.8759 25.8637 23.9256 25.8637 23.9852 25.8637C24.0051 25.8637 24.025 25.8637 24.0449 25.8637C24.0747 25.8637 24.1144 25.8637 24.1443 25.8637C27.0567 25.814 29.4124 24.7902 31.1519 22.8321C34.9788 18.5181 34.3426 11.1228 34.2731 10.4171C34.0246 5.11907 31.5197 2.58439 29.4522 1.40153C27.9115 0.516877 26.1124 0.0397598 24.1045 0H24.0349C24.025 0 24.0051 0 23.9952 0H23.9355C22.8322 0 20.6653 0.178919 18.5878 1.36177C16.5004 2.54463 13.9558 5.07931 13.7073 10.4171C13.6377 11.1228 13.0016 18.5181 16.8285 22.8321C18.558 24.7902 20.9138 25.814 23.8262 25.8637ZM16.3613 10.6656C16.3613 10.6357 16.3712 10.6059 16.3712 10.586C16.6992 3.4591 21.7587 2.69373 23.9256 2.69373H23.9653C23.9852 2.69373 24.015 2.69373 24.0449 2.69373C26.7287 2.75337 31.2911 3.84676 31.5992 10.586C31.5992 10.6159 31.5992 10.6457 31.6092 10.6656C31.6191 10.7351 32.3149 17.4943 29.154 21.0528C27.9016 22.4643 26.2317 23.1601 24.0349 23.18C24.015 23.18 24.0051 23.18 23.9852 23.18C23.9653 23.18 23.9554 23.18 23.9355 23.18C21.7487 23.1601 20.0689 22.4643 18.8264 21.0528C15.6754 17.5142 16.3513 10.7252 16.3613 10.6656Z" fill="white"/>
<path d="M44.4118 38.1296C44.4118 38.1197 44.4118 38.1097 44.4118 38.0998C44.4118 38.0203 44.4018 37.9408 44.4018 37.8513C44.3422 35.8832 44.213 31.281 39.899 29.8099C39.8692 29.7999 39.8294 29.79 39.7996 29.7801C35.3167 28.637 31.5892 26.0526 31.5495 26.0228C30.9431 25.5953 30.1082 25.7444 29.6808 26.3508C29.2533 26.9571 29.4024 27.7921 30.0088 28.2195C30.1778 28.3388 34.1339 31.0921 39.0839 32.3645C41.4 33.1895 41.6584 35.6645 41.728 37.9308C41.728 38.0203 41.728 38.0998 41.7379 38.1793C41.7478 39.0739 41.6882 40.4556 41.5292 41.2508C39.9189 42.1652 33.607 45.3261 24.005 45.3261C14.4428 45.3261 8.09119 42.1553 6.47098 41.2408C6.31194 40.4456 6.24236 39.064 6.26224 38.1694C6.26224 38.0899 6.27218 38.0103 6.27218 37.9209C6.34176 35.6546 6.6002 33.1795 8.91621 32.3545C13.8663 31.0822 17.8224 28.3189 17.9914 28.2095C18.5977 27.7821 18.7468 26.9472 18.3194 26.3408C17.892 25.7345 17.057 25.5854 16.4507 26.0128C16.4109 26.0426 12.7033 28.627 8.20053 29.7701C8.16077 29.7801 8.13095 29.79 8.10113 29.7999C3.7872 31.281 3.65798 35.8832 3.59834 37.8414C3.59834 37.9308 3.59834 38.0103 3.5884 38.0899C3.5884 38.0998 3.5884 38.1097 3.5884 38.1197C3.57846 38.6366 3.56852 41.2905 4.09534 42.6225C4.19474 42.8809 4.37365 43.0996 4.61221 43.2487C4.91041 43.4475 12.0572 48 24.015 48C35.9727 48 43.1196 43.4376 43.4178 43.2487C43.6464 43.0996 43.8352 42.8809 43.9346 42.6225C44.4316 41.3005 44.4217 38.6465 44.4118 38.1296Z" fill="white"/>
</svg>
