<svg width="48" height="48" viewBox="0 0 48 48" fill="none" xmlns="http://www.w3.org/2000/svg">
<path d="M37.9 29.5696C36.958 27.6057 33.588 24.8796 30.332 22.2456C28.516 20.7776 26.8 19.3896 25.706 18.2956C25.432 18.0196 25.022 17.9316 24.6601 18.0616C23.9861 18.3057 23.57 18.4936 23.2421 18.6396C22.7421 18.8636 22.5741 18.9396 21.9001 19.0076C21.602 19.0376 21.3341 19.1976 21.1681 19.4456C19.754 21.5595 18.29 21.3795 17.312 21.0516C17 20.9476 16.9441 20.8136 16.9141 20.6856C16.7041 19.8076 17.7581 17.7636 19.124 16.3976C22.3741 13.1456 24.05 12.3315 27.59 13.9136C31.606 15.7095 35.63 17.1156 35.6701 17.1296C36.1961 17.3115 36.7621 17.0355 36.944 16.5135C37.124 15.9915 36.85 15.4215 36.328 15.2396C36.288 15.2256 32.344 13.8476 28.408 12.0855C23.822 10.0355 21.306 11.3855 17.712 14.9816C16.344 16.3496 14.4859 19.1175 14.9659 21.1476C15.1719 22.0116 15.78 22.6516 16.6839 22.9496C18.9499 23.6976 21.0179 22.9815 22.5579 20.9376C23.1939 20.8396 23.5399 20.6956 24.0599 20.4616C24.2478 20.3776 24.4679 20.2797 24.7599 20.1616C25.9039 21.2356 27.4479 22.4856 29.0739 23.7996C32.0139 26.1776 35.3479 28.8736 36.0979 30.4336C36.468 31.2036 36.0699 31.7056 35.7999 31.9356C35.4039 32.2756 34.8619 32.3836 34.5679 32.1776C34.2439 31.9556 33.822 31.9416 33.4879 32.1416C33.1519 32.3415 32.964 32.7195 33.006 33.1076C33.0739 33.7436 32.4919 34.1076 32.2399 34.2336C31.5999 34.5576 30.9319 34.5016 30.6819 34.2696C30.4019 34.0096 29.9999 33.9336 29.6439 34.0656C29.2879 34.1996 29.0399 34.5276 29.0039 34.9076C28.9439 35.5635 28.4579 36.1935 27.8238 36.4395C27.5178 36.5555 27.0738 36.6255 26.6759 36.2615C26.4279 36.0375 26.0838 35.9515 25.7619 36.0295C25.4359 36.1095 25.1739 36.3455 25.0599 36.6595C25.0219 36.7595 24.9359 36.9995 23.9999 36.9995C23.3339 36.9995 22.1358 36.5495 21.5499 36.1615C20.8479 35.6995 16.4459 32.4155 12.6439 29.2315C12.1099 28.7815 11.1859 27.8174 10.3699 26.9654C9.6459 26.2094 8.98393 25.5235 8.6439 25.2355C8.2179 24.8755 7.5879 24.9295 7.2339 25.3535C6.87793 25.7755 6.92987 26.4075 7.35193 26.7635C7.66196 27.0255 8.26196 27.6595 8.92393 28.3495C9.81596 29.2814 10.7379 30.2455 11.358 30.7655C15.082 33.8835 19.558 37.2495 20.4499 37.8355C21.186 38.3195 22.7719 38.9995 24 38.9995C24.9859 38.9995 25.744 38.7734 26.2699 38.3315C26.9739 38.6055 27.774 38.6075 28.5439 38.3075C29.454 37.9555 30.2019 37.2455 30.6259 36.3855C31.4139 36.5535 32.316 36.4355 33.1359 36.0236C33.9379 35.6196 34.5179 35.0016 34.8059 34.2795C35.6019 34.3215 36.4218 34.0395 37.0998 33.4575C38.248 32.4756 38.5639 30.9477 37.9 29.5696Z" fill="#1EC28B" fill-opacity="0.5"/>
<path d="M20 12.9997H11C10.448 12.9997 9.99994 13.4477 9.99994 13.9997C9.99994 14.5517 10.448 14.9998 11 14.9998H20C20.552 14.9998 21 14.5517 21 13.9997C21 13.4477 20.552 12.9997 20 12.9997Z" fill="#1EC28B" fill-opacity="0.5"/>
<path d="M40.83 27.4416C40.52 26.9837 39.9 26.8577 39.442 27.1697L36.5181 29.1336C36.0601 29.4416 35.938 30.0636 36.2461 30.5216C36.4401 30.8076 36.7561 30.9636 37.0781 30.9636C37.2682 30.9636 37.4621 30.9096 37.6342 30.7937L40.5581 28.8297C41.016 28.5216 41.138 27.8997 40.83 27.4416Z" fill="#1EC28B" fill-opacity="0.5"/>
<path d="M34.6219 32.2138C33.9059 31.6498 30.7039 28.3718 28.7239 26.3078C28.3418 25.9077 27.7079 25.8938 27.3098 26.2778C26.9098 26.6598 26.8978 27.2937 27.2798 27.6918C27.7939 28.2278 32.3278 32.9538 33.3818 33.7858C33.5638 33.9298 33.7838 33.9999 33.9998 33.9999C34.2938 33.9999 34.5878 33.8679 34.7878 33.6178C35.1299 33.1858 35.0559 32.5558 34.6219 32.2138Z" fill="#1EC28B" fill-opacity="0.5"/>
<path d="M30.6259 34.2197C29.4279 33.2617 26.418 30.0637 25.7379 29.3237C25.3619 28.9157 24.7319 28.8917 24.3239 29.2637C23.9179 29.6377 23.8899 30.2717 24.2639 30.6777C24.2999 30.7157 27.8919 34.5938 29.3759 35.7818C29.5599 35.9278 29.7819 35.9998 29.9999 35.9998C30.2919 35.9998 30.5838 35.8697 30.7818 35.6258C31.126 35.1937 31.056 34.5637 30.6259 34.2197Z" fill="#1EC28B" fill-opacity="0.5"/>
<path d="M26.646 36.2338C25.22 35.0318 22.302 31.9258 21.732 31.3158C21.354 30.9118 20.72 30.8898 20.318 31.2678C19.914 31.6458 19.894 32.2777 20.27 32.6818C21.09 33.5598 23.882 36.5198 25.356 37.7638C25.544 37.9218 25.772 37.9998 26 37.9998C26.284 37.9998 26.568 37.8778 26.766 37.6438C27.122 37.2198 27.068 36.5898 26.646 36.2338Z" fill="#1EC28B" fill-opacity="0.5"/>
<path d="M11.688 11.2737C9.97397 9.64963 3.12 9.1236 1.06003 9.00163C0.776062 8.98767 0.514031 9.0816 0.314062 9.27163C0.114 9.4596 0 9.7236 0 9.9996V27.9996C0 28.5516 0.448031 28.9996 1.00003 28.9996H7.00003C7.43203 28.9996 7.81603 28.7217 7.95 28.3096C8.09597 27.8616 11.542 17.2857 11.996 12.0856C12.022 11.7816 11.91 11.4816 11.688 11.2737ZM6.27 26.9997H1.99997V11.0716C5.214 11.3256 8.682 11.8776 9.942 12.4896C9.41203 16.8696 7.014 24.6516 6.27 26.9997Z" fill="#1EC28B" fill-opacity="0.5"/>
<path d="M46.9999 10.9997C39.1479 10.9997 34.7919 13.0097 34.61 13.0937C34.35 13.2157 34.1559 13.4417 34.076 13.7158C33.996 13.9898 34.0359 14.2838 34.1859 14.5277C35.4219 16.5178 39.2919 27.5697 40.0359 30.2657C40.1559 30.6997 40.55 30.9997 41 30.9997H46.9999C47.5519 30.9997 48 30.5516 48 29.9996V11.9997C48 11.4457 47.5519 10.9997 46.9999 10.9997ZM46 28.9997H41.748C40.8 25.9117 38 17.8597 36.438 14.5318C37.964 14.0138 41.242 13.1237 46 13.0118V28.9997Z" fill="#1EC28B" fill-opacity="0.5"/>
</svg>
