<svg width="37" height="37" viewBox="0 0 37 37" fill="none" xmlns="http://www.w3.org/2000/svg">
<g filter="url(#filter0_d_2_237)">
<circle cx="18.4681" cy="14.4681" r="14.4681" fill="white"/>
</g>
<path d="M23.7219 11.6537C23.7302 11.7686 23.7302 11.8828 23.7302 11.997C23.7302 15.4924 21.1369 19.5202 16.3977 19.5202C14.9376 19.5202 13.5812 19.0863 12.4397 18.3328C12.647 18.357 12.8466 18.3656 13.0623 18.3656C14.2223 18.3685 15.3494 17.9705 16.2621 17.2359C15.7242 17.2259 15.2029 17.0439 14.7708 16.7152C14.3387 16.3865 14.0174 15.9276 13.8518 15.4025C14.0111 15.4268 14.1711 15.4432 14.3387 15.4432C14.5697 15.4432 14.802 15.4104 15.0176 15.3533C14.4339 15.2324 13.9091 14.9078 13.5323 14.4347C13.1555 13.9617 12.9501 13.3694 12.9509 12.7585V12.7256C13.2945 12.9219 13.6931 13.0447 14.1154 13.0611C13.7616 12.8199 13.4716 12.4926 13.2711 12.1085C13.0705 11.7243 12.9658 11.2952 12.9663 10.8594C12.9663 10.3684 13.0936 9.91814 13.3169 9.5256C13.9645 10.3429 14.7722 11.0114 15.6877 11.4881C16.6032 11.9647 17.6061 12.2387 18.6314 12.2924C18.5917 12.0955 18.5674 11.8913 18.5674 11.6865C18.5672 11.3393 18.6338 10.9954 18.7632 10.6745C18.8927 10.3536 19.0825 10.0621 19.3219 9.81652C19.5612 9.57096 19.8454 9.37621 20.1582 9.2434C20.4709 9.11058 20.8061 9.04231 21.1446 9.04248C21.8868 9.04248 22.5567 9.3615 23.0277 9.87744C23.6046 9.76298 24.1579 9.54689 24.6631 9.23875C24.4707 9.84975 24.0679 10.3679 23.5299 10.696C24.0417 10.6361 24.5418 10.4981 25.0137 10.2864C24.6612 10.8136 24.2245 11.2758 23.7219 11.6537Z" fill="#00395F"/>
<defs>
<filter id="filter0_d_2_237" x="0" y="0" width="36.9362" height="36.9363" filterUnits="userSpaceOnUse" color-interpolation-filters="sRGB">
<feFlood flood-opacity="0" result="BackgroundImageFix"/>
<feColorMatrix in="SourceAlpha" type="matrix" values="0 0 0 0 0 0 0 0 0 0 0 0 0 0 0 0 0 0 127 0" result="hardAlpha"/>
<feOffset dy="4"/>
<feGaussianBlur stdDeviation="2"/>
<feColorMatrix type="matrix" values="0 0 0 0 0.7375 0 0 0 0 0.7375 0 0 0 0 0.7375 0 0 0 0.25 0"/>
<feBlend mode="normal" in2="BackgroundImageFix" result="effect1_dropShadow_2_237"/>
<feBlend mode="normal" in="SourceGraphic" in2="effect1_dropShadow_2_237" result="shape"/>
</filter>
</defs>
</svg>
